<svg width="34" height="34" viewBox="0 0 34 34" fill="none" xmlns="http://www.w3.org/2000/svg">
<path d="M17 0.333252C26.205 0.333252 33.6666 7.79492 33.6666 16.9999C33.6666 26.2049 26.205 33.6666 17 33.6666C7.79498 33.6666 0.333313 26.2049 0.333313 16.9999C0.333313 7.79492 7.79498 0.333252 17 0.333252ZM17.2666 23.6666C15.6543 23.6647 14.0592 23.998 12.5824 24.6453C11.1057 25.2925 9.77961 26.2397 8.68831 27.4266C11.0476 29.3127 13.9794 30.3381 17 30.3333C20.1539 30.3378 23.2065 29.22 25.6116 27.1799C24.5262 26.0662 23.2284 25.1814 21.795 24.5779C20.3617 23.9745 18.8219 23.6646 17.2666 23.6666ZM17 3.66659C14.5201 3.66665 12.0894 4.35829 9.98104 5.6638C7.87264 6.9693 6.17011 8.83693 5.06476 11.0568C3.95941 13.2767 3.49504 15.7608 3.72385 18.2301C3.95265 20.6994 4.86556 23.0559 6.35998 25.0349C7.76059 23.5481 9.45089 22.3638 11.3267 21.5552C13.2025 20.7466 15.224 20.3307 17.2666 20.3333C19.2361 20.3307 21.1866 20.7172 23.0062 21.4706C24.8259 22.2239 26.4787 23.3293 27.87 24.7233C29.2875 22.7284 30.1287 20.382 30.3014 17.9409C30.4741 15.4998 29.9717 13.0583 28.8491 10.8838C27.7266 8.70924 26.0272 6.8856 23.9372 5.6126C21.8472 4.33959 19.4472 3.66634 17 3.66659ZM17 5.33325C18.7681 5.33325 20.4638 6.03563 21.714 7.28587C22.9643 8.53612 23.6666 10.2318 23.6666 11.9999C23.6666 13.768 22.9643 15.4637 21.714 16.714C20.4638 17.9642 18.7681 18.6666 17 18.6666C15.2319 18.6666 13.5362 17.9642 12.2859 16.714C11.0357 15.4637 10.3333 13.768 10.3333 11.9999C10.3333 10.2318 11.0357 8.53612 12.2859 7.28587C13.5362 6.03563 15.2319 5.33325 17 5.33325ZM17 8.66658C16.1159 8.66658 15.2681 9.01777 14.643 9.6429C14.0178 10.268 13.6666 11.1159 13.6666 11.9999C13.6666 12.884 14.0178 13.7318 14.643 14.3569C15.2681 14.9821 16.1159 15.3333 17 15.3333C17.884 15.3333 18.7319 14.9821 19.357 14.3569C19.9821 13.7318 20.3333 12.884 20.3333 11.9999C20.3333 11.1159 19.9821 10.268 19.357 9.6429C18.7319 9.01777 17.884 8.66658 17 8.66658Z" fill="#666666"/>
</svg>
